<?xml version="1.0" encoding="UTF-8"?>
<svg xmlns="http://www.w3.org/2000/svg" viewBox="0 0 1600 980" role="img" aria-label="AI Development Workflow">
  <defs>
    <linearGradient id="bg" x1="0%" y1="0%" x2="100%" y2="100%">
      <stop offset="0%" stop-color="#0a1020"/><stop offset="45%" stop-color="#0d1528"/><stop offset="100%" stop-color="#0a0f1a"/>
    </linearGradient>
    <linearGradient id="titleGrad" x1="0%" y1="0%" x2="100%" y2="0%">
      <stop offset="0%" stop-color="#93c5fd"/><stop offset="50%" stop-color="#a78bfa"/><stop offset="100%" stop-color="#34d399"/>
    </linearGradient>
    <linearGradient id="cardFill" x1="0%" y1="0%" x2="0%" y2="100%">
      <stop offset="0%" stop-color="#1a2540"/><stop offset="100%" stop-color="#121b2e"/>
    </linearGradient>
    <linearGradient id="kitFill" x1="0%" y1="0%" x2="100%" y2="0%">
      <stop offset="0%" stop-color="#1e1b3a"/><stop offset="100%" stop-color="#151d2e"/>
    </linearGradient>
    <filter id="cardShadow" x="-20%" y="-20%" width="140%" height="140%">
      <feDropShadow dx="0" dy="8" stdDeviation="12" flood-color="#000" flood-opacity="0.45"/>
    </filter>
    <filter id="glowBlue"><feDropShadow dx="0" dy="0" stdDeviation="3" flood-color="#4f8ffa" flood-opacity="0.55"/></filter>
    <filter id="glowRed"><feDropShadow dx="0" dy="0" stdDeviation="2.5" flood-color="#f04444" flood-opacity="0.45"/></filter>
    <marker id="arrowFwd" markerWidth="10" markerHeight="10" refX="8" refY="5" orient="auto" markerUnits="strokeWidth"><path d="M0,0 L10,5 L0,10 Z" fill="#5b9cff"/></marker>
    <marker id="arrowReg" markerWidth="10" markerHeight="10" refX="8" refY="5" orient="auto" markerUnits="strokeWidth"><path d="M0,0 L10,5 L0,10 Z" fill="#f87171"/></marker>
    <marker id="arrowKit" markerWidth="10" markerHeight="10" refX="8" refY="5" orient="auto" markerUnits="strokeWidth"><path d="M0,0 L10,5 L0,10 Z" fill="#a78bfa"/></marker>
    <style>
      .title { font: 800 42px 'Segoe UI','Malgun Gothic',sans-serif; fill: url(#titleGrad); }
      .subtitle { font: 500 14px 'Segoe UI','Malgun Gothic',sans-serif; fill: #8b9ab0; }
      .node-title { font: 800 17px 'Segoe UI','Malgun Gothic',sans-serif; fill: #eef3fb; }
      .node-id { font: 700 13px 'Segoe UI',sans-serif; fill: #8fa4c4; }
      .node-desc { font: 500 12px 'Segoe UI','Malgun Gothic',sans-serif; fill: #b8c6e2; }
      .edge-label { font: 700 12px 'Segoe UI','Malgun Gothic',sans-serif; fill: #dbeafe; }
      .edge-label-reg { fill: #fecaca; }
      .legend { font: 600 12px 'Segoe UI','Malgun Gothic',sans-serif; fill: #9bb0d3; }
      .kit-title { font: 800 13px 'Segoe UI','Malgun Gothic',sans-serif; fill: #c4b5fd; letter-spacing: .06em; }
      .kit-step-t { font: 700 12px 'Segoe UI','Malgun Gothic',sans-serif; fill: #eef3fb; }
      .kit-step-d { font: 500 10px 'Segoe UI','Malgun Gothic',sans-serif; fill: #8b9ab0; }
      .kit-note { font: 500 11px 'Segoe UI','Malgun Gothic',sans-serif; fill: #7d8fa8; }
    </style>
  </defs>
  <rect width="1600" height="980" fill="url(#bg)"/>
  <circle cx="120" cy="80" r="280" fill="#4f8ffa" opacity="0.06"/>
  <circle cx="1480" cy="120" r="240" fill="#7c6ff7" opacity="0.07"/>
  <text x="800" y="52" text-anchor="middle" class="title">AI Development Workflow</text>
  <text x="800" y="78" text-anchor="middle" class="subtitle">cursor-workspace-kit · Gate · 분기 · 회귀 · 템클릿 발전</text>
  <g transform="translate(80,96)">
    <line x1="0" y1="0" x2="36" y2="0" stroke="#5b9cff" stroke-width="3"/><text x="44" y="4" class="legend">전진 (실선)</text>
    <line x1="140" y1="0" x2="176" y2="0" stroke="#f87171" stroke-width="2.5" stroke-dasharray="7 5"/><text x="184" y="4" class="legend">회귀 (점선)</text>
    <line x1="300" y1="0" x2="336" y2="0" stroke="#a78bfa" stroke-width="3"/><text x="344" y="4" class="legend">템클릿 발전</text>
  </g>
  <g fill="none" stroke-linecap="round" stroke-linejoin="round">
    <path d="M 145 352 L 145 200 L 320 200" stroke="#5b9cff" stroke-width="2.5" marker-end="url(#arrowFwd)" filter="url(#glowBlue)"/><text x="200" y="188" class="edge-label">초기 착수</text>
    <path d="M 240 352 L 320 352" stroke="#5b9cff" stroke-width="2.5" marker-end="url(#arrowFwd)" filter="url(#glowBlue)"/><text x="255" y="340" class="edge-label">개선 착수</text>
    <path d="M 145 410 L 145 520 L 580 520 L 580 465" stroke="#5b9cff" stroke-width="2.5" marker-end="url(#arrowFwd)" filter="url(#glowBlue)"/><text x="300" y="512" class="edge-label">버그 수정 착수</text>
    <path d="M 510 127 L 840 127" stroke="#5b9cff" stroke-width="2.5" marker-end="url(#arrowFwd)" filter="url(#glowBlue)"/><text x="640" y="115" class="edge-label">PRD 승인</text>
    <path d="M 930 185 L 930 295" stroke="#5b9cff" stroke-width="2.5" marker-end="url(#arrowFwd)" filter="url(#glowBlue)"/><text x="948" y="248" class="edge-label">선택 완료</text>
    <path d="M 415 410 L 415 455 L 930 455 L 930 410" stroke="#5b9cff" stroke-width="2.5" marker-end="url(#arrowFwd)" filter="url(#glowBlue)"/><text x="640" y="448" class="edge-label">RED·구현</text>
    <path d="M 510 352 L 580 352" stroke="#5b9cff" stroke-width="2.5" marker-end="url(#arrowFwd)" filter="url(#glowBlue)"/><text x="520" y="340" class="edge-label">보완</text>
    <path d="M 580 368 L 510 368" stroke="#5b9cff" stroke-width="2.5" marker-end="url(#arrowFwd)" filter="url(#glowBlue)"/><text x="518" y="384" class="edge-label">다시 착수</text>
    <path d="M 675 295 L 675 185 L 415 185" stroke="#5b9cff" stroke-width="2.5" marker-end="url(#arrowFwd)" filter="url(#glowBlue)"/><text x="520" y="178" class="edge-label">PRD 수정</text>
    <path d="M 1030 352 L 1100 352" stroke="#5b9cff" stroke-width="2.5" marker-end="url(#arrowFwd)" filter="url(#glowBlue)"/><text x="1040" y="340" class="edge-label">검수</text>
    <path d="M 770 520 L 1100 520 L 1195 520 L 1195 410" stroke="#5b9cff" stroke-width="2.5" marker-end="url(#arrowFwd)" filter="url(#glowBlue)"/><text x="920" y="512" class="edge-label">검수</text>
    <path d="M 840 155 L 510 155" stroke="#f87171" stroke-width="2.2" stroke-dasharray="8 6" marker-end="url(#arrowReg)" filter="url(#glowRed)"/><text x="640" y="148" class="edge-label edge-label-reg">PRD 수정</text>
    <path d="M 1100 380 L 1030 380" stroke="#f87171" stroke-width="2.2" stroke-dasharray="8 6" marker-end="url(#arrowReg)" filter="url(#glowRed)"/><text x="1045" y="372" class="edge-label edge-label-reg">다시 구현</text>
    <path d="M 1195 410 L 1195 660 L 415 660 L 415 410" stroke="#f87171" stroke-width="2.2" stroke-dasharray="8 6" marker-end="url(#arrowReg)" filter="url(#glowRed)"/><text x="780" y="652" class="edge-label edge-label-reg">다시 착수</text>
    <path d="M 1195 410 L 1195 600 L 770 600 L 770 520" stroke="#f87171" stroke-width="2.2" stroke-dasharray="8 6" marker-end="url(#arrowReg)" filter="url(#glowRed)"/><text x="980" y="592" class="edge-label edge-label-reg">재수정</text>
    <path d="M 1245 410 L 1245 720 L 145 720 L 145 410" stroke="#f87171" stroke-width="2.2" stroke-dasharray="8 6" marker-end="url(#arrowReg)" filter="url(#glowRed)"/><text x="680" y="712" class="edge-label edge-label-reg">재분류</text>
  </g>
  <g filter="url(#cardShadow)">
    <g transform="translate(320, 70)">
      <rect width="190" height="115" rx="14" fill="url(#cardFill)" stroke="#2d4470" stroke-width="1.2"/>
      <rect width="190" height="4" rx="2" fill="#4f8ffa" opacity="0.9"/>
      <text x="16" y="36" class="node-title">PRD 작성</text>
      <text x="128" y="36" class="node-id">(p2)</text>
      <text x="16" y="58" class="node-desc">Gate 1 · PRD+AC · HUMAN 승인</text>
    </g>
    <g transform="translate(840, 70)">
      <rect width="190" height="115" rx="14" fill="url(#cardFill)" stroke="#2d4470" stroke-width="1.2"/>
      <rect width="190" height="4" rx="2" fill="#4f8ffa" opacity="0.9"/>
      <text x="16" y="36" class="node-title">이중 목업·정합</text>
      <text x="128" y="36" class="node-id">(p3)</text>
      <text x="16" y="58" class="node-desc">선택 전 · PRD·요구 정합</text>
    </g>
    <g transform="translate(50, 295)">
      <rect width="190" height="115" rx="14" fill="url(#cardFill)" stroke="#4f8ffa" stroke-width="1.6"/>
      <rect width="190" height="4" rx="2" fill="#4f8ffa" opacity="0.9"/>
      <text x="16" y="36" class="node-title">요청 분기</text>
      <text x="128" y="36" class="node-id">(p1)</text>
      <text x="16" y="58" class="node-desc">E2E · 신귀/개선 · 버그</text>
      <text x="16" y="76" class="node-desc">간단 수정 분기</text>
    </g>
    <g transform="translate(320, 295)">
      <rect width="190" height="115" rx="14" fill="url(#cardFill)" stroke="#2d4470" stroke-width="1.2"/>
      <rect width="190" height="4" rx="2" fill="#4f8ffa" opacity="0.9"/>
      <text x="16" y="36" class="node-title">착수 문서 확인</text>
      <text x="128" y="36" class="node-id">(p5)</text>
      <text x="16" y="58" class="node-desc">Gate 1 · 요구·화면·API·AC</text>
    </g>
    <g transform="translate(580, 295)">
      <rect width="190" height="115" rx="14" fill="url(#cardFill)" stroke="#2d4470" stroke-width="1.2"/>
      <rect width="190" height="4" rx="2" fill="#4f8ffa" opacity="0.9"/>
      <text x="16" y="36" class="node-title">요구·스폭 보완</text>
      <text x="128" y="36" class="node-id">(p8)</text>
      <text x="16" y="58" class="node-desc">문서 보강 · 크면 PRD로</text>
    </g>
    <g transform="translate(840, 295)">
      <rect width="190" height="115" rx="14" fill="url(#cardFill)" stroke="#22c87a" stroke-width="1.4"/>
      <rect width="190" height="4" rx="2" fill="#22c87a" opacity="0.9"/>
      <text x="16" y="36" class="node-title">제품 구현</text>
      <text x="128" y="36" class="node-id">(p4)</text>
      <text x="16" y="58" class="node-desc">Gate 2 · ATDD RED</text>
      <text x="16" y="76" class="node-desc">FE/BE 병렬 · GREEN</text>
    </g>
    <g transform="translate(1100, 295)">
      <rect width="190" height="115" rx="14" fill="url(#cardFill)" stroke="#22c87a" stroke-width="1.4"/>
      <rect width="190" height="4" rx="2" fill="#22c87a" opacity="0.9"/>
      <text x="16" y="36" class="node-title">완료 판정</text>
      <text x="128" y="36" class="node-id">(p7)</text>
      <text x="16" y="58" class="node-desc">Gate 3 · AC 커버리</text>
    </g>
    <g transform="translate(580, 520)">
      <rect width="190" height="115" rx="14" fill="url(#cardFill)" stroke="#2d4470" stroke-width="1.2"/>
      <rect width="190" height="4" rx="2" fill="#f5a623" opacity="0.9"/>
      <text x="16" y="36" class="node-title">버그 수정</text>
      <text x="128" y="36" class="node-id">(p6)</text>
      <text x="16" y="58" class="node-desc">bugfix-flow · 간단 수정</text>
    </g>
  </g>
  <g transform="translate(60,780)">
    <rect width="1480" height="170" rx="16" fill="url(#kitFill)" stroke="#5b21b6" stroke-width="1"/>
    <text x="24" y="32" class="kit-title">템클릿 발전 루프 · KIT EVOLUTION</text>
      <g transform="translate(24,52)">
        <rect width="118" height="58" rx="10" fill="#151d2e" stroke="#4c1d95" stroke-width="1"/>
        <text x="59" y="24" text-anchor="middle" class="kit-step-t">/start-setting</text>
        <text x="59" y="42" text-anchor="middle" class="kit-step-d">제품 온더딩</text>
      </g>
      <text x="150" y="84" fill="#a78bfa" font-size="18" font-weight="700">→</text>
      <g transform="translate(172,52)">
        <rect width="118" height="58" rx="10" fill="#151d2e" stroke="#334155" stroke-width="1"/>
        <text x="59" y="24" text-anchor="middle" class="kit-step-t">일상 개발</text>
        <text x="59" y="42" text-anchor="middle" class="kit-step-d">위 워크클리우</text>
      </g>
      <text x="298" y="84" fill="#a78bfa" font-size="18" font-weight="700">→</text>
      <g transform="translate(320,52)">
        <rect width="148" height="58" rx="10" fill="#151d2e" stroke="#334155" stroke-width="1"/>
        <text x="74" y="24" text-anchor="middle" class="kit-step-t">규칙 신호 수집</text>
        <text x="74" y="42" text-anchor="middle" class="kit-step-d">실시간 + /kit-rule-mine</text>
      </g>
      <text x="476" y="84" fill="#a78bfa" font-size="18" font-weight="700">→</text>
      <g transform="translate(498,52)">
        <rect width="118" height="58" rx="10" fill="#151d2e" stroke="#334155" stroke-width="1"/>
        <text x="59" y="24" text-anchor="middle" class="kit-step-t">HUMAN 승인</text>
        <text x="59" y="42" text-anchor="middle" class="kit-step-d">승인 / 반려</text>
      </g>
      <text x="624" y="84" fill="#a78bfa" font-size="18" font-weight="700">→</text>
      <g transform="translate(646,52)">
        <rect width="118" height="58" rx="10" fill="#151d2e" stroke="#334155" stroke-width="1"/>
        <text x="59" y="24" text-anchor="middle" class="kit-step-t">SSOT 승격</text>
        <text x="59" y="42" text-anchor="middle" class="kit-step-d">shared/* 편집</text>
      </g>
      <text x="772" y="84" fill="#a78bfa" font-size="18" font-weight="700">→</text>
      <g transform="translate(794,52)">
        <rect width="118" height="58" rx="10" fill="#151d2e" stroke="#334155" stroke-width="1"/>
        <text x="59" y="24" text-anchor="middle" class="kit-step-t">sync-kit</text>
        <text x="59" y="42" text-anchor="middle" class="kit-step-d">동기화</text>
      </g>
      <text x="920" y="84" fill="#a78bfa" font-size="18" font-weight="700">→</text>
      <g transform="translate(942,52)">
        <rect width="118" height="58" rx="10" fill="#151d2e" stroke="#334155" stroke-width="1"/>
        <text x="59" y="24" text-anchor="middle" class="kit-step-t">/kit-start</text>
        <text x="59" y="42" text-anchor="middle" class="kit-step-d">제품 배포</text>
      </g>
    <path d="M 1090 81 L 1320 81 L 1320 130 L 207 130 L 207 110" fill="none" stroke="#a78bfa" stroke-width="2" marker-end="url(#arrowKit)"/>
    <text x="740" y="148" text-anchor="middle" class="kit-note">/kit-start → 일상 개발 환류 · emergent-rule-capture → HUMAN → SSOT</text>
  </g>
</svg>